<svg width="792" height="303" viewBox="0 0 792 303" fill="none" xmlns="http://www.w3.org/2000/svg">
<g clip-path="url(#clip0_504_14)">
<path d="M467.804 297.882H363.223L426.623 58.907C435.055 27.127 463.818 5 496.697 5H546.342L467.804 297.882Z" fill="#FFD100" stroke="#FFD100" stroke-width="10"/>
<path d="M489.959 297.882L569.024 5H623.404H669.579L591.113 297.882H489.959Z" fill="#FF8300" stroke="#FF8300" stroke-width="10"/>
<path d="M614.033 297.882L691.735 5H755.026C776.279 5 791.746 25.1612 786.242 45.6881L718.614 297.882H614.033Z" fill="#FF1212" stroke="#FF1212" stroke-width="10"/>
<path d="M310.679 178.177H267.174C274.522 149.52 299.653 126.103 328.327 124.21L328.683 124.186H328.698L328.841 124.178C329.922 124.116 331.008 124.085 332.099 124.085C333.132 124.085 334.145 124.116 335.14 124.177L335.292 124.186H335.444H385.882L346.776 274.293L346.769 274.319L346.763 274.346C346.759 274.363 346.754 274.38 346.75 274.396C343.368 287.148 329.317 297.88 315.508 297.88C314.929 297.88 314.363 297.861 313.811 297.824L309.583 297.542L309.495 297.884H73.1525L72.8365 297.841C40.4849 293.424 23.4444 276.9 14.836 259.45C6.05994 241.661 5.98499 222.755 8.05713 214.185L8.81874 211.036L48.5743 58.4361L48.5796 58.4158L48.5847 58.3955C50.1693 52.1005 53.0301 45.7655 57.0588 39.7972C62.5514 31.6605 69.9523 24.5972 78.4297 19.414C86.9095 14.2294 96.0445 11.1829 104.784 10.5142L104.525 5.53056L104.784 10.5142C106.014 10.42 107.229 10.3734 108.425 10.3735H108.425H417.13L402.957 64.7768H131.274H130.799L130.331 64.8662C110.926 68.567 100.216 81.1337 95.0427 92.348L94.8519 92.7615L94.7375 93.2007L78.8197 154.3H78.803L77.7995 158.152L69.2588 190.936L69.1888 191.204L69.1487 191.479C67.9091 199.941 68.5091 211.519 74.3828 221.723C80.3941 232.167 91.5657 240.529 110.107 242.861L110.416 242.9H110.728H269.97H270.304L270.636 242.855C281.679 241.38 297.555 235.334 305.79 218.914L306.017 218.461L306.15 217.975L315.376 184.387L317.081 178.177H310.679Z" fill="white" stroke="white" stroke-width="10"/>
</g>
<defs>
<clipPath id="clip0_504_14">
<rect width="792" height="303" fill="white"/>
</clipPath>
</defs>
</svg>
