<svg id="eWN29t6hTui1" xmlns="http://www.w3.org/2000/svg" xmlnsXlink="http://www.w3.org/1999/xlink" viewBox="0 0 1439 320" shape-rendering="geometricPrecision" text-rendering="geometricPrecision">
    <style>#eWN29t6hTui5_to {animation: eWN29t6hTui5_to__to 3500ms linear 1 normal forwards}@keyframes eWN29t6hTui5_to__to { 0% {transform: translate(1760.78547px,160.000004px)} 57.142857% {transform: translate(1760.78547px,160.000004px);animation-timing-function: cubic-bezier(0.42,0,1,1)} 68.571429% {transform: translate(1106.399187px,160.000004px)} 100% {transform: translate(1106.399187px,160.000004px)}} #eWN29t6hTui6_to {animation: eWN29t6hTui6_to__to 3500ms linear 1 normal forwards}@keyframes eWN29t6hTui6_to__to { 0% {transform: translate(539.796388px,-157.476186px)} 11.428571% {transform: translate(539.796388px,-157.476186px);animation-timing-function: cubic-bezier(0.42,0,0.58,1)} 22.857143% {transform: translate(454.791px,157.358245px)} 100% {transform: translate(454.791px,157.358245px)}} #eWN29t6hTui7_to {animation: eWN29t6hTui7_to__to 3500ms linear 1 normal forwards}@keyframes eWN29t6hTui7_to__to { 0% {transform: translate(664.761985px,-157.476186px)} 22.857143% {transform: translate(664.761985px,-157.476186px);animation-timing-function: cubic-bezier(0.42,0,0.58,1)} 34.285714% {transform: translate(579.762985px,157.358245px)} 100% {transform: translate(579.762985px,157.358245px)}} #eWN29t6hTui8_to {animation: eWN29t6hTui8_to__to 3500ms linear 1 normal forwards}@keyframes eWN29t6hTui8_to__to { 0% {transform: translate(784.945463px,-157.476186px)} 34.285714% {transform: translate(784.945463px,-157.476186px);animation-timing-function: cubic-bezier(0.42,0,0.58,1)} 45.714286% {transform: translate(699.949463px,157.358245px)} 100% {transform: translate(699.949463px,157.358245px)}} #eWN29t6hTui9_to {animation: eWN29t6hTui9_to__to 3500ms linear 1 normal forwards}@keyframes eWN29t6hTui9_to__to { 0% {transform: translate(296.739242px,-154.83443px);animation-timing-function: cubic-bezier(0.42,0,0.58,1)} 11.428571% {transform: translate(211.74369px,160.000001px)} 100% {transform: translate(211.74369px,160.000001px)}}</style>
    <g clip-path="url(#eWN29t6hTui10)">
        <g>
            <g>
                <g id="eWN29t6hTui5_to" transform="translate(1760.78547,160.000004)">
                    <path d="M906.656,138.711l5.817-20.791c4.443-15.88-1.551-24.2298-20.591-24.2298h-27.88L834.139,200.432h22.27l10.718-38.31h7.65c15.64,0,27.711-8.513,31.879-23.411Zm-21.504-2.128c-1.191,4.257-3.951,6.221-7.861,6.221h-4.76l8.474-30.287h5.61c3.23,0,4.674,2.129,3.575,6.058l-5.038,18.008Zm57.277,63.849L972.292,93.6902h-22.44L919.989,200.432h22.44Zm108.321-87.424l5.4-19.3178h-56.1l-5.404,19.3178h16.834l-24.462,87.424h22.442l24.46-87.424h16.83ZM1225.5,93.6902h-22.44L1183.51,146.57c-3.95,10.477-8.05,22.101-8.05,22.101h-.34c0,0,2.74-11.624,4.31-22.101l7.99-52.8798h-21.25L1144.58,146.57c-3.94,9.823-8.05,22.101-8.05,22.101h-.34c0,0,2.46-12.442,4.31-22.101l10.03-52.8798h-22.44L1113.53,200.432h24.99l18.47-45.349c3.84-9.496,8.74-22.756,8.74-22.756h.34c0,0-2.52,13.26-3.98,22.756l-6.91,45.349h24.99L1225.5,93.6902Zm52.33,106.7418l14.56-106.7418h-31.28L1215.95,200.432h21.76l9.02-21.938h12.58l-3.24,21.938h21.76Zm-15.3-40.11h-8.84l10-26.031c3-7.694,6.52-17.845,6.52-17.845h.34c0,0-2.16,10.151-3.46,17.845l-4.56,26.031Zm85.89,40.11l5.41-19.319h-20.57l24.45-87.4228h-22.44L1305.41,200.432h43.01Zm71.57,0l5.41-19.319h-20.57l24.46-87.4228h-22.44L1376.98,200.432h43.01Z" transform="translate(-1131.714508,-147.061104)" fill="#fff"/>
                </g>
            </g>
            <g id="eWN29t6hTui6_to" transform="translate(539.796388,-157.476186)">
                <path d="M421.791,66.0747c9.012-33.9718,39.759-57.62481,74.906-57.62481h56.162L471.64,311.332h-114.917L421.791,66.0747Z" transform="translate(-454.791,-159.890945)" fill="#ffd100"/>
            </g>
            <g id="eWN29t6hTui7_to" transform="translate(664.761985,-157.476186)">
                <path d="M565.195,8.44989h58.209h52.691L594.95,311.332h-111.519L565.195,8.44989Z" transform="translate(-579.762985,-159.890945)" fill="#ff8300"/>
            </g>
            <g id="eWN29t6hTui8_to" transform="translate(784.945463,-157.476186)">
                <path d="M687.889,8.44989h67.137c24.541,0,42.401,23.28021,36.045,46.98321L722.45,311.332h-114.916L687.889,8.44989Z" transform="translate(-699.949463,-159.890945)" fill="#ff1212"/>
            </g>
            <g id="eWN29t6hTui9_to" transform="translate(296.739242,-154.83443)">
                <path d="M419.841,13.7334l-15.181,64.42h-275.642c-17.324,3.3209-26.563,14.4928-30.9651,24.5796L82.7416,167.704h-.0166l-7.728,32.794c-1.876,15.421,3.3991,41.507,37.891,45.833h159.242c10.072-1.351,23.882-6.814,30.711-21.144l8.393-33.598h-49.526c4.793-33.237,32.344-61.78,65.506-63.974l.007-.026v-.008h.552c1.173-.067,2.354-.101,3.541-.101c1.132,0,2.248.034,3.347.101h56.753l-36.833,156.3c-.001.003-.001.007-.001.01-3.577,15.154-19.492,27.437-35.549,27.437-.689,0-1.366-.023-2.032-.067l-.016.071h-241.3203l.021-.089C7.39906,301.95,0.409559,240.95,4.61854,221.548h-.05981L41.2946,65.6639c1.5681-6.9122,4.5173-13.7929,8.697-20.2228c5.6951-8.761,13.4538-16.344,22.4199-21.912s18.791-8.9042,28.3895-9.6403c1.352-.1038,2.694-.1555,4.02-.1554h315.02ZM92.4296,65.6639h.1533l.1072-.4548h-.0049l-.2556.4548Z" transform="translate(-211.74369,-162.532701)" clip-rule="evenodd" fill="#fff" fill-rule="evenodd"/>
            </g>
        </g>
        <clipPath id="eWN29t6hTui10">
            <rect width="1439" height="320" rx="0" ry="0" fill="#fff"/>
        </clipPath>
    </g>
</svg>